<?xml version="1.0" standalone="no"?>
<!DOCTYPE svg PUBLIC "-//W3C//DTD SVG 20010904//EN"
 "http://www.w3.org/TR/2001/REC-SVG-20010904/DTD/svg10.dtd">
<svg version="1.0" xmlns="http://www.w3.org/2000/svg"
 width="700.000000pt" height="700.000000pt" viewBox="0 0 700.000000 700.000000"
 preserveAspectRatio="xMidYMid meet">
<metadata>
Created by potrace 1.11, written by Peter Selinger 2001-2013
</metadata>
<g transform="translate(0.000000,700.000000) scale(0.100000,-0.100000)"
fill="#000000" stroke="none">
<path d="M3427 6344 c-1 -1 -54 -4 -118 -8 -63 -4 -124 -8 -135 -10 -10 -2
-41 -7 -69 -10 -113 -14 -147 -27 -195 -75 -66 -66 -85 -151 -54 -236 14 -39
67 -96 107 -117 38 -19 137 -32 137 -18 0 3 12 7 28 8 15 1 38 4 52 7 123 24
507 24 631 0 13 -3 44 -8 69 -11 63 -8 239 -49 339 -80 311 -96 628 -278 894
-514 l29 -25 -199 -5 c-182 -5 -201 -7 -238 -28 -99 -57 -138 -189 -86 -291
25 -47 56 -75 109 -99 42 -19 68 -20 530 -18 455 1 489 2 522 20 49 26 79 55
103 101 21 39 22 49 22 535 l0 495 -28 46 c-75 126 -235 151 -340 54 -58 -54
-62 -72 -67 -303 l-5 -212 -50 46 c-263 244 -613 454 -970 582 -132 47 -342
104 -430 117 -23 3 -50 7 -60 9 -37 7 -105 18 -133 21 -67 9 -388 24 -395 19z"/>
<path d="M1250 6114 c-86 -26 -147 -102 -154 -192 -6 -84 39 -165 113 -206 48
-26 51 -26 262 -26 l214 -1 -35 -31 c-297 -264 -508 -532 -677 -858 -142 -272
-261 -647 -288 -905 -3 -27 -8 -61 -10 -75 -16 -87 -23 -425 -11 -535 3 -27 8
-75 11 -105 15 -143 66 -393 89 -438 51 -98 195 -146 294 -99 52 24 98 80 114
140 10 40 9 60 -15 174 -15 70 -30 148 -33 173 -3 25 -7 51 -10 58 -6 21 -17
206 -18 307 0 140 14 303 39 440 25 133 99 384 140 472 8 17 15 34 15 38 0 17
119 240 178 335 99 157 198 280 355 435 l142 139 5 -194 c5 -212 9 -228 70
-288 39 -39 119 -66 172 -58 78 13 137 55 174 126 17 33 19 69 20 515 1 515 0
524 -51 591 -13 17 -46 42 -72 55 l-48 24 -473 0 c-337 1 -484 -3 -512 -11z"/>
<path d="M5984 4390 c-127 -30 -187 -148 -151 -300 52 -220 70 -368 71 -580 0
-110 -11 -307 -18 -319 -2 -3 -6 -28 -10 -56 -24 -199 -127 -521 -223 -704
-97 -183 -118 -215 -232 -371 -82 -111 -356 -400 -380 -400 -8 0 -11 55 -11
178 0 150 -3 183 -19 217 -39 86 -114 134 -206 130 -83 -3 -150 -47 -191 -125
-18 -33 -19 -67 -19 -525 0 -482 0 -491 22 -536 25 -53 78 -97 137 -113 29 -9
175 -12 516 -11 l475 1 46 27 c157 93 150 305 -14 388 -33 18 -60 20 -249 20
l-211 1 44 40 c146 132 258 250 360 378 69 85 209 284 209 296 0 2 12 23 27
47 39 63 138 262 178 362 94 235 154 470 190 745 22 172 22 537 -1 652 -2 13
-6 46 -10 73 -12 115 -61 327 -85 377 -24 48 -81 94 -135 107 -48 12 -64 12
-110 1z"/>
<path d="M1255 2179 c-52 -12 -109 -59 -137 -112 -22 -41 -22 -49 -24 -522 -1
-516 0 -524 51 -591 54 -71 179 -98 261 -56 52 27 100 81 113 129 6 21 11 125
11 231 l0 193 93 -82 c435 -385 983 -630 1552 -694 207 -23 465 -23 648 0 20
3 56 7 80 10 95 12 137 27 181 66 52 46 76 105 71 176 -5 85 -45 147 -118 185
-38 19 -137 32 -137 18 0 -4 -6 -7 -12 -7 -7 0 -38 -4 -68 -7 -155 -18 -206
-22 -325 -20 -124 1 -267 10 -310 18 -11 2 -42 7 -70 11 -27 4 -97 18 -155 31
-146 35 -235 63 -395 127 -72 29 -283 141 -363 193 -99 64 -223 159 -296 227
l-50 45 200 4 c189 3 201 4 240 27 99 59 137 187 85 288 -25 49 -55 77 -110
102 -42 18 -67 19 -510 19 -256 0 -484 -4 -506 -9z"/>
</g>
</svg>
